# MagicaVoxel @ Ephtracy

# group
o 

# material
mtllib Dungeon-Coin.mtl
usemtl palette

# normals
vn -1 0 0
vn 1 0 0
vn 0 0 1
vn 0 0 -1
vn 0 -1 0
vn 0 1 0

# texcoords
vt 0.427734 0.5
vt 0.458984 0.5

# verts
v 0 0 0
v 0 0 -0.2
v 0 0 -0.4
v 0 0.1 0
v 0 0.1 -0.2
v 0 0.1 -0.4
v 0.3 0 -0.1
v 0.3 0 -0.2
v 0.3 0 -0.3
v 0.3 0.1 -0.1
v 0.3 0.1 -0.2
v 0.3 0.1 -0.3
v 0.1 0 -0.1
v 0.1 0 -0.2
v 0.1 0 -0.3
v 0.1 0.1 -0.1
v 0.1 0.1 -0.2
v 0.1 0.1 -0.3
v 0.4 0 0
v 0.4 0 -0.2
v 0.4 0 -0.4
v 0.4 0.1 0
v 0.4 0.1 -0.2
v 0.4 0.1 -0.4
v 0 0 0
v 0 0.1 0
v 0.4 0 0
v 0.4 0.1 0
v 0.1 0 -0.3
v 0.1 0.1 -0.3
v 0.3 0 -0.3
v 0.3 0.1 -0.3
v 0.1 0 -0.1
v 0.1 0.1 -0.1
v 0.3 0 -0.1
v 0.3 0.1 -0.1
v 0 0 -0.4
v 0 0.1 -0.4
v 0.4 0 -0.4
v 0.4 0.1 -0.4
v 0 0 0
v 0.4 0 0
v 0.1 0 -0.1
v 0.3 0 -0.1
v 0 0 -0.2
v 0.1 0 -0.2
v 0.3 0 -0.2
v 0.4 0 -0.2
v 0.1 0 -0.3
v 0.3 0 -0.3
v 0 0 -0.4
v 0.4 0 -0.4
v 0 0.1 0
v 0.4 0.1 0
v 0.1 0.1 -0.1
v 0.3 0.1 -0.1
v 0 0.1 -0.2
v 0.1 0.1 -0.2
v 0.3 0.1 -0.2
v 0.4 0.1 -0.2
v 0.1 0.1 -0.3
v 0.3 0.1 -0.3
v 0 0.1 -0.4
v 0.4 0.1 -0.4

# faces
f 4/2/1 2/2/1 1/2/1
f 5/1/1 3/1/1 2/1/1
f 5/2/1 2/2/1 4/2/1
f 6/1/1 3/1/1 5/1/1
f 10/2/1 8/2/1 7/2/1
f 11/1/1 9/1/1 8/1/1
f 11/2/1 8/2/1 10/2/1
f 12/1/1 9/1/1 11/1/1
f 13/2/2 14/2/2 16/2/2
f 14/1/2 15/1/2 17/1/2
f 16/2/2 14/2/2 17/2/2
f 17/1/2 15/1/2 18/1/2
f 19/2/2 20/2/2 22/2/2
f 20/1/2 21/1/2 23/1/2
f 22/2/2 20/2/2 23/2/2
f 23/1/2 21/1/2 24/1/2
f 27/2/3 26/2/3 25/2/3
f 28/2/3 26/2/3 27/2/3
f 31/1/3 30/1/3 29/1/3
f 32/1/3 30/1/3 31/1/3
f 33/2/4 34/2/4 35/2/4
f 35/2/4 34/2/4 36/2/4
f 37/1/4 38/1/4 39/1/4
f 39/1/4 38/1/4 40/1/4
f 43/2/5 42/2/5 41/2/5
f 44/2/5 42/2/5 43/2/5
f 45/2/5 43/2/5 41/2/5
f 46/2/5 43/2/5 45/2/5
f 47/2/5 42/2/5 44/2/5
f 48/2/5 42/2/5 47/2/5
f 49/1/5 46/1/5 45/1/5
f 50/1/5 48/1/5 47/1/5
f 51/1/5 49/1/5 45/1/5
f 51/1/5 50/1/5 49/1/5
f 52/1/5 48/1/5 50/1/5
f 52/1/5 50/1/5 51/1/5
f 53/2/6 54/2/6 55/2/6
f 55/2/6 54/2/6 56/2/6
f 53/2/6 55/2/6 57/2/6
f 57/2/6 55/2/6 58/2/6
f 56/2/6 54/2/6 59/2/6
f 59/2/6 54/2/6 60/2/6
f 57/1/6 58/1/6 61/1/6
f 59/1/6 60/1/6 62/1/6
f 57/1/6 61/1/6 63/1/6
f 61/1/6 62/1/6 63/1/6
f 62/1/6 60/1/6 64/1/6
f 63/1/6 62/1/6 64/1/6
