# MagicaVoxel @ Ephtracy

# group
o 

# material
mtllib Dungeon-Character-Model.mtl
usemtl palette

# normals
vn -1 0 0
vn 1 0 0
vn 0 0 1
vn 0 0 -1
vn 0 -1 0
vn 0 1 0

# texcoords
vt 0.0566406 0.5
vt 0.0605469 0.5
vt 0.248047 0.5
vt 0.498047 0.5
vt 0.560547 0.5
vt 0.681641 0.5
vt 0.708984 0.5
vt 0.775391 0.5
vt 0.779297 0.5
vt 0.810547 0.5
vt 0.841797 0.5
vt 0.873047 0.5

# verts
v 0 1.1 -0.2
v 0 1.1 -0.3
v 0 1.2 -0.2
v 0 1.2 -0.3
v 0.2 0.9 -0.2
v 0.2 0.9 -0.3
v 0.2 0.9 -0.5
v 0.2 1 -0.2
v 0.2 1 -0.3
v 0.2 1 -0.5
v 0.3 0.6 -0.1
v 0.3 0.6 -0.3
v 0.3 0.7 -0.1
v 0.3 0.7 -0.2
v 0.3 0.7 -0.3
v 0.3 0.9 -0.1
v 0.3 0.9 -0.2
v 0.3 0.9 -0.3
v 0.3 1 -0.2
v 0.3 1 -0.3
v 0.3 1 -0.4
v 0.3 1.1 -0.1
v 0.3 1.1 -0.2
v 0.3 1.1 -0.3
v 0.3 1.1 -0.4
v 0.3 1.2 -0.2
v 0.3 1.2 -0.3
v 0.3 1.3 -0.1
v 0.3 1.3 -0.4
v 0.3 1.4 -0.1
v 0.3 1.4 -0.3
v 0.3 1.4 -0.4
v 0.3 1.5 -0.1
v 0.3 1.5 -0.2
v 0.3 1.6 -0.1
v 0.3 1.6 -0.2
v 0.3 1.6 -0.3
v 0.3 1.7 -0.1
v 0.3 1.7 -0.2
v 0.3 1.7 -0.4
v 0.4 0.8 -0.1
v 0.4 0.8 -0.2
v 0.4 0.8 -0.3
v 0.4 0.8 -0.4
v 0.4 0.9 -0.1
v 0.4 0.9 -0.2
v 0.4 0.9 -0.3
v 0.4 0.9 -0.4
v 0.4 1 -0.4
v 0.4 1 -0.5
v 0.4 1.1 -0.4
v 0.4 1.2 -0.4
v 0.4 1.2 -0.5
v 0.4 1.3 -0.2
v 0.4 1.3 -0.3
v 0.4 1.4 -0.2
v 0.4 1.4 -0.3
v 0.4 1.5 0
v 0.4 1.5 -0.1
v 0.4 1.5 -0.2
v 0.4 1.5 -0.4
v 0.4 1.5 -0.5
v 0.4 1.5 -0.6
v 0.4 1.6 0
v 0.4 1.6 -0.1
v 0.4 1.6 -0.2
v 0.4 1.6 -0.5
v 0.4 1.6 -0.6
v 0.4 1.7 -0.3
v 0.4 1.7 -0.4
v 0.4 1.8 -0.3
v 0.4 1.8 -0.5
v 0.5 0.6 -0.1
v 0.5 0.6 -0.3
v 0.5 0.7 -0.1
v 0.5 0.7 -0.2
v 0.5 0.7 -0.3
v 0.5 0.8 -0.2
v 0.5 0.8 -0.3
v 0.9 1.2 -0.1
v 0.9 1.2 -0.2
v 0.9 1.2 -0.3
v 0.9 1.2 -0.4
v 0.9 1.3 -0.1
v 0.9 1.3 -0.2
v 0.9 1.3 -0.3
v 0.9 1.3 -0.4
v 0.9 1.8 -0.2
v 0.9 1.8 -0.3
v 0.3 0.9 -0.4
v 0.3 0.9 -0.5
v 0.3 1 -0.4
v 0.3 1 -0.5
v 0.4 0.6 -0.1
v 0.4 0.6 -0.3
v 0.4 0.7 -0.1
v 0.4 0.7 -0.2
v 0.4 0.7 -0.3
v 0.4 0.8 -0.2
v 0.4 0.8 -0.3
v 0.5 0.8 -0.1
v 0.5 0.8 -0.2
v 0.5 0.8 -0.3
v 0.5 0.8 -0.4
v 0.5 0.9 -0.1
v 0.5 0.9 -0.2
v 0.5 0.9 -0.3
v 0.5 0.9 -0.4
v 0.5 1 -0.4
v 0.5 1 -0.5
v 0.5 1.1 -0.4
v 0.5 1.2 -0.4
v 0.5 1.2 -0.5
v 0.5 1.3 -0.2
v 0.5 1.3 -0.3
v 0.5 1.4 -0.2
v 0.5 1.4 -0.3
v 0.5 1.5 0
v 0.5 1.5 -0.1
v 0.5 1.5 -0.2
v 0.5 1.5 -0.4
v 0.5 1.5 -0.5
v 0.5 1.5 -0.6
v 0.5 1.6 0
v 0.5 1.6 -0.1
v 0.5 1.6 -0.2
v 0.5 1.6 -0.5
v 0.5 1.6 -0.6
v 0.5 1.7 -0.3
v 0.5 1.7 -0.4
v 0.5 1.8 -0.3
v 0.5 1.8 -0.5
v 0.6 0.6 -0.1
v 0.6 0.6 -0.3
v 0.6 0.7 -0.1
v 0.6 0.7 -0.2
v 0.6 0.7 -0.3
v 0.6 0.9 -0.1
v 0.6 0.9 -0.2
v 0.6 0.9 -0.3
v 0.6 0.9 -0.4
v 0.6 1.1 -0.1
v 0.6 1.1 -0.2
v 0.6 1.1 -0.3
v 0.6 1.1 -0.4
v 0.6 1.2 -0.2
v 0.6 1.2 -0.3
v 0.6 1.3 -0.1
v 0.6 1.3 -0.4
v 0.6 1.4 -0.1
v 0.6 1.4 -0.3
v 0.6 1.4 -0.4
v 0.6 1.5 -0.1
v 0.6 1.5 -0.2
v 0.6 1.6 -0.1
v 0.6 1.6 -0.2
v 0.6 1.6 -0.3
v 0.6 1.7 -0.1
v 0.6 1.7 -0.2
v 0.6 1.7 -0.4
v 1 1.1 -0.2
v 1 1.1 -0.3
v 1 1.2 -0.1
v 1 1.2 -0.2
v 1 1.2 -0.3
v 1 1.2 -0.4
v 1 1.3 -0.1
v 1 1.3 -0.2
v 1 1.3 -0.3
v 1 1.3 -0.4
v 1 1.8 -0.2
v 1 1.8 -0.3
v 0.4 1.5 0
v 0.4 1.6 0
v 0.5 1.5 0
v 0.5 1.6 0
v 0.3 0.6 -0.1
v 0.3 0.7 -0.1
v 0.3 0.9 -0.1
v 0.3 1.1 -0.1
v 0.3 1.3 -0.1
v 0.3 1.4 -0.1
v 0.3 1.5 -0.1
v 0.3 1.6 -0.1
v 0.3 1.7 -0.1
v 0.4 0.6 -0.1
v 0.4 0.7 -0.1
v 0.4 0.8 -0.1
v 0.4 0.9 -0.1
v 0.4 1 -0.1
v 0.4 1.1 -0.1
v 0.4 1.2 -0.1
v 0.4 1.5 -0.1
v 0.4 1.6 -0.1
v 0.5 0.6 -0.1
v 0.5 0.7 -0.1
v 0.5 0.8 -0.1
v 0.5 0.9 -0.1
v 0.5 1 -0.1
v 0.5 1.1 -0.1
v 0.5 1.2 -0.1
v 0.5 1.5 -0.1
v 0.5 1.6 -0.1
v 0.6 0.6 -0.1
v 0.6 0.7 -0.1
v 0.6 0.9 -0.1
v 0.6 1.1 -0.1
v 0.6 1.3 -0.1
v 0.6 1.4 -0.1
v 0.6 1.5 -0.1
v 0.6 1.6 -0.1
v 0.6 1.7 -0.1
v 0.9 1.2 -0.1
v 0.9 1.3 -0.1
v 1 1.2 -0.1
v 1 1.3 -0.1
v 0 1.1 -0.2
v 0 1.2 -0.2
v 0.1 1.1 -0.2
v 0.1 1.2 -0.2
v 0.2 0.9 -0.2
v 0.2 1 -0.2
v 0.3 0.7 -0.2
v 0.3 0.9 -0.2
v 0.3 1 -0.2
v 0.3 1.1 -0.2
v 0.3 1.2 -0.2
v 0.3 1.5 -0.2
v 0.3 1.6 -0.2
v 0.4 0.7 -0.2
v 0.4 0.8 -0.2
v 0.4 0.9 -0.2
v 0.4 1.3 -0.2
v 0.4 1.4 -0.2
v 0.4 1.5 -0.2
v 0.4 1.6 -0.2
v 0.5 0.7 -0.2
v 0.5 0.8 -0.2
v 0.5 0.9 -0.2
v 0.5 1.3 -0.2
v 0.5 1.4 -0.2
v 0.5 1.5 -0.2
v 0.5 1.6 -0.2
v 0.6 0.7 -0.2
v 0.6 0.9 -0.2
v 0.6 1.1 -0.2
v 0.6 1.2 -0.2
v 0.6 1.5 -0.2
v 0.6 1.6 -0.2
v 0.8 1.1 -0.2
v 0.8 1.2 -0.2
v 0.9 1.1 -0.2
v 0.9 1.2 -0.2
v 0.9 1.3 -0.2
v 0.9 1.8 -0.2
v 1 1.1 -0.2
v 1 1.2 -0.2
v 1 1.3 -0.2
v 1 1.8 -0.2
v 0.4 1.7 -0.3
v 0.4 1.8 -0.3
v 0.5 1.7 -0.3
v 0.5 1.8 -0.3
v 0 1.1 -0.3
v 0 1.2 -0.3
v 0.1 1.1 -0.3
v 0.1 1.2 -0.3
v 0.3 0.6 -0.3
v 0.3 0.7 -0.3
v 0.3 0.9 -0.3
v 0.3 1.1 -0.3
v 0.3 1.2 -0.3
v 0.4 0.6 -0.3
v 0.4 0.7 -0.3
v 0.4 0.8 -0.3
v 0.4 0.9 -0.3
v 0.4 1.3 -0.3
v 0.4 1.4 -0.3
v 0.5 0.6 -0.3
v 0.5 0.7 -0.3
v 0.5 0.8 -0.3
v 0.5 0.9 -0.3
v 0.5 1.3 -0.3
v 0.5 1.4 -0.3
v 0.6 0.6 -0.3
v 0.6 0.7 -0.3
v 0.6 0.9 -0.3
v 0.6 1.1 -0.3
v 0.6 1.2 -0.3
v 0.8 1.1 -0.3
v 0.8 1.2 -0.3
v 0.9 1.1 -0.3
v 0.9 1.2 -0.3
v 0.9 1.3 -0.3
v 0.9 1.8 -0.3
v 1 1.1 -0.3
v 1 1.2 -0.3
v 1 1.3 -0.3
v 1 1.8 -0.3
v 0.3 0.9 -0.4
v 0.3 1 -0.4
v 0.3 1.1 -0.4
v 0.3 1.3 -0.4
v 0.3 1.4 -0.4
v 0.3 1.7 -0.4
v 0.4 0.8 -0.4
v 0.4 0.9 -0.4
v 0.4 1 -0.4
v 0.4 1.1 -0.4
v 0.4 1.2 -0.4
v 0.4 1.5 -0.4
v 0.4 1.7 -0.4
v 0.5 0.8 -0.4
v 0.5 0.9 -0.4
v 0.5 1 -0.4
v 0.5 1.1 -0.4
v 0.5 1.2 -0.4
v 0.5 1.5 -0.4
v 0.5 1.7 -0.4
v 0.6 0.9 -0.4
v 0.6 1.1 -0.4
v 0.6 1.3 -0.4
v 0.6 1.4 -0.4
v 0.6 1.7 -0.4
v 0.9 1.2 -0.4
v 0.9 1.3 -0.4
v 1 1.2 -0.4
v 1 1.3 -0.4
v 0.2 0.9 -0.5
v 0.2 1 -0.5
v 0.3 0.9 -0.5
v 0.3 1 -0.5
v 0.4 1 -0.5
v 0.4 1.2 -0.5
v 0.4 1.6 -0.5
v 0.4 1.8 -0.5
v 0.5 1 -0.5
v 0.5 1.2 -0.5
v 0.5 1.6 -0.5
v 0.5 1.8 -0.5
v 0.4 1.5 -0.6
v 0.4 1.6 -0.6
v 0.5 1.5 -0.6
v 0.5 1.6 -0.6
v 0.3 0.6 -0.1
v 0.4 0.6 -0.1
v 0.5 0.6 -0.1
v 0.6 0.6 -0.1
v 0.3 0.6 -0.3
v 0.4 0.6 -0.3
v 0.5 0.6 -0.3
v 0.6 0.6 -0.3
v 0.4 0.8 -0.1
v 0.5 0.8 -0.1
v 0.4 0.8 -0.2
v 0.5 0.8 -0.2
v 0.4 0.8 -0.3
v 0.5 0.8 -0.3
v 0.4 0.8 -0.4
v 0.5 0.8 -0.4
v 0.3 0.9 -0.1
v 0.4 0.9 -0.1
v 0.5 0.9 -0.1
v 0.6 0.9 -0.1
v 0.2 0.9 -0.2
v 0.3 0.9 -0.2
v 0.4 0.9 -0.2
v 0.5 0.9 -0.2
v 0.6 0.9 -0.2
v 0.2 0.9 -0.3
v 0.3 0.9 -0.3
v 0.4 0.9 -0.3
v 0.5 0.9 -0.3
v 0.6 0.9 -0.3
v 0.3 0.9 -0.4
v 0.4 0.9 -0.4
v 0.5 0.9 -0.4
v 0.6 0.9 -0.4
v 0.2 0.9 -0.5
v 0.3 0.9 -0.5
v 0.4 1 -0.4
v 0.5 1 -0.4
v 0.4 1 -0.5
v 0.5 1 -0.5
v 0 1.1 -0.2
v 0.1 1.1 -0.2
v 0.3 1.1 -0.2
v 0.6 1.1 -0.2
v 0.8 1.1 -0.2
v 0.9 1.1 -0.2
v 1 1.1 -0.2
v 0 1.1 -0.3
v 0.1 1.1 -0.3
v 0.3 1.1 -0.3
v 0.6 1.1 -0.3
v 0.8 1.1 -0.3
v 0.9 1.1 -0.3
v 1 1.1 -0.3
v 0.9 1.2 -0.1
v 1 1.2 -0.1
v 0.9 1.2 -0.2
v 1 1.2 -0.2
v 0.9 1.2 -0.3
v 1 1.2 -0.3
v 0.9 1.2 -0.4
v 1 1.2 -0.4
v 0.3 1.4 -0.1
v 0.6 1.4 -0.1
v 0.4 1.4 -0.2
v 0.5 1.4 -0.2
v 0.3 1.4 -0.3
v 0.4 1.4 -0.3
v 0.5 1.4 -0.3
v 0.6 1.4 -0.3
v 0.3 1.4 -0.4
v 0.6 1.4 -0.4
v 0.4 1.5 0
v 0.5 1.5 0
v 0.4 1.5 -0.1
v 0.5 1.5 -0.1
v 0.4 1.5 -0.4
v 0.5 1.5 -0.4
v 0.4 1.5 -0.5
v 0.5 1.5 -0.5
v 0.4 1.5 -0.6
v 0.5 1.5 -0.6
v 0.3 1.6 -0.1
v 0.4 1.6 -0.1
v 0.5 1.6 -0.1
v 0.6 1.6 -0.1
v 0.3 1.6 -0.2
v 0.4 1.6 -0.2
v 0.5 1.6 -0.2
v 0.6 1.6 -0.2
v 0.3 0.7 -0.1
v 0.4 0.7 -0.1
v 0.5 0.7 -0.1
v 0.6 0.7 -0.1
v 0.3 0.7 -0.2
v 0.4 0.7 -0.2
v 0.5 0.7 -0.2
v 0.6 0.7 -0.2
v 0.2 1 -0.2
v 0.3 1 -0.2
v 0.2 1 -0.3
v 0.3 1 -0.3
v 0.3 1 -0.4
v 0.2 1 -0.5
v 0.3 1 -0.5
v 0 1.2 -0.2
v 0.1 1.2 -0.2
v 0.3 1.2 -0.2
v 0.6 1.2 -0.2
v 0.8 1.2 -0.2
v 0.9 1.2 -0.2
v 0 1.2 -0.3
v 0.1 1.2 -0.3
v 0.3 1.2 -0.3
v 0.6 1.2 -0.3
v 0.8 1.2 -0.3
v 0.9 1.2 -0.3
v 0.4 1.2 -0.4
v 0.5 1.2 -0.4
v 0.4 1.2 -0.5
v 0.5 1.2 -0.5
v 0.3 1.3 -0.1
v 0.6 1.3 -0.1
v 0.9 1.3 -0.1
v 1 1.3 -0.1
v 0.4 1.3 -0.2
v 0.5 1.3 -0.2
v 0.9 1.3 -0.2
v 1 1.3 -0.2
v 0.4 1.3 -0.3
v 0.5 1.3 -0.3
v 0.9 1.3 -0.3
v 1 1.3 -0.3
v 0.3 1.3 -0.4
v 0.6 1.3 -0.4
v 0.9 1.3 -0.4
v 1 1.3 -0.4
v 0.3 1.5 -0.1
v 0.4 1.5 -0.1
v 0.5 1.5 -0.1
v 0.6 1.5 -0.1
v 0.3 1.5 -0.2
v 0.4 1.5 -0.2
v 0.5 1.5 -0.2
v 0.6 1.5 -0.2
v 0.4 1.6 0
v 0.5 1.6 0
v 0.4 1.6 -0.1
v 0.5 1.6 -0.1
v 0.4 1.6 -0.5
v 0.5 1.6 -0.5
v 0.4 1.6 -0.6
v 0.5 1.6 -0.6
v 0.3 1.7 -0.1
v 0.6 1.7 -0.1
v 0.3 1.7 -0.2
v 0.6 1.7 -0.2
v 0.4 1.7 -0.3
v 0.5 1.7 -0.3
v 0.3 1.7 -0.4
v 0.4 1.7 -0.4
v 0.5 1.7 -0.4
v 0.6 1.7 -0.4
v 0.9 1.8 -0.2
v 1 1.8 -0.2
v 0.4 1.8 -0.3
v 0.5 1.8 -0.3
v 0.9 1.8 -0.3
v 1 1.8 -0.3
v 0.4 1.8 -0.5
v 0.5 1.8 -0.5

# faces
f 3/9/1 2/9/1 1/9/1
f 4/9/1 2/9/1 3/9/1
f 8/5/1 6/5/1 5/5/1
f 9/4/1 7/4/1 6/4/1
f 9/5/1 6/5/1 8/5/1
f 10/4/1 7/4/1 9/4/1
f 13/9/1 12/9/1 11/9/1
f 14/9/1 12/9/1 13/9/1
f 15/9/1 12/9/1 14/9/1
f 17/10/1 15/10/1 14/10/1
f 18/10/1 15/10/1 17/10/1
f 19/10/1 17/10/1 16/10/1
f 22/10/1 20/10/1 19/10/1
f 22/10/1 21/10/1 20/10/1
f 22/10/1 19/10/1 16/10/1
f 23/10/1 21/10/1 22/10/1
f 24/10/1 21/10/1 23/10/1
f 25/10/1 21/10/1 24/10/1
f 26/11/1 23/11/1 22/11/1
f 27/11/1 25/11/1 24/11/1
f 28/11/1 26/11/1 22/11/1
f 28/11/1 27/11/1 26/11/1
f 29/11/1 25/11/1 27/11/1
f 29/11/1 27/11/1 28/11/1
f 33/11/1 31/11/1 30/11/1
f 34/11/1 31/11/1 33/11/1
f 36/11/1 31/11/1 34/11/1
f 37/10/1 32/10/1 31/10/1
f 37/11/1 31/11/1 36/11/1
f 38/11/1 36/11/1 35/11/1
f 39/10/1 37/10/1 36/10/1
f 39/11/1 36/11/1 38/11/1
f 40/10/1 32/10/1 37/10/1
f 40/10/1 37/10/1 39/10/1
f 45/10/1 42/10/1 41/10/1
f 46/10/1 42/10/1 45/10/1
f 47/10/1 44/10/1 43/10/1
f 48/10/1 44/10/1 47/10/1
f 51/9/1 50/9/1 49/9/1
f 52/9/1 50/9/1 51/9/1
f 53/9/1 50/9/1 52/9/1
f 56/10/1 55/10/1 54/10/1
f 57/10/1 55/10/1 56/10/1
f 64/3/1 60/3/1 59/3/1
f 64/3/1 59/3/1 58/3/1
f 65/3/1 60/3/1 64/3/1
f 66/3/1 60/3/1 65/3/1
f 67/1/1 62/1/1 61/1/1
f 67/2/1 63/2/1 62/2/1
f 68/2/1 63/2/1 67/2/1
f 70/1/1 67/1/1 61/1/1
f 71/1/1 70/1/1 69/1/1
f 72/1/1 67/1/1 70/1/1
f 72/1/1 70/1/1 71/1/1
f 75/9/1 74/9/1 73/9/1
f 76/9/1 74/9/1 75/9/1
f 77/9/1 74/9/1 76/9/1
f 78/10/1 77/10/1 76/10/1
f 79/10/1 77/10/1 78/10/1
f 84/7/1 81/7/1 80/7/1
f 85/8/1 82/8/1 81/8/1
f 85/7/1 81/7/1 84/7/1
f 86/7/1 83/7/1 82/7/1
f 86/8/1 82/8/1 85/8/1
f 87/7/1 83/7/1 86/7/1
f 88/6/1 86/6/1 85/6/1
f 89/6/1 86/6/1 88/6/1
f 90/4/2 91/4/2 92/4/2
f 92/4/2 91/4/2 93/4/2
f 94/9/2 95/9/2 96/9/2
f 96/9/2 95/9/2 97/9/2
f 97/9/2 95/9/2 98/9/2
f 97/10/2 98/10/2 99/10/2
f 99/10/2 98/10/2 100/10/2
f 101/10/2 102/10/2 105/10/2
f 105/10/2 102/10/2 106/10/2
f 103/10/2 104/10/2 107/10/2
f 107/10/2 104/10/2 108/10/2
f 109/9/2 110/9/2 111/9/2
f 111/9/2 110/9/2 112/9/2
f 112/9/2 110/9/2 113/9/2
f 114/10/2 115/10/2 116/10/2
f 116/10/2 115/10/2 117/10/2
f 119/3/2 120/3/2 124/3/2
f 118/3/2 119/3/2 124/3/2
f 124/3/2 120/3/2 125/3/2
f 125/3/2 120/3/2 126/3/2
f 121/1/2 122/1/2 127/1/2
f 122/2/2 123/2/2 127/2/2
f 127/2/2 123/2/2 128/2/2
f 121/1/2 127/1/2 130/1/2
f 129/1/2 130/1/2 131/1/2
f 130/1/2 127/1/2 132/1/2
f 131/1/2 130/1/2 132/1/2
f 133/9/2 134/9/2 135/9/2
f 135/9/2 134/9/2 136/9/2
f 136/9/2 134/9/2 137/9/2
f 136/10/2 137/10/2 139/10/2
f 139/10/2 137/10/2 140/10/2
f 139/10/2 140/10/2 142/10/2
f 140/10/2 141/10/2 142/10/2
f 138/10/2 139/10/2 142/10/2
f 142/10/2 141/10/2 143/10/2
f 143/10/2 141/10/2 144/10/2
f 144/10/2 141/10/2 145/10/2
f 142/11/2 143/11/2 146/11/2
f 144/11/2 145/11/2 147/11/2
f 142/11/2 146/11/2 148/11/2
f 146/11/2 147/11/2 148/11/2
f 147/11/2 145/11/2 149/11/2
f 148/11/2 147/11/2 149/11/2
f 150/11/2 151/11/2 153/11/2
f 153/11/2 151/11/2 154/11/2
f 154/11/2 151/11/2 156/11/2
f 151/10/2 152/10/2 157/10/2
f 156/11/2 151/11/2 157/11/2
f 155/11/2 156/11/2 158/11/2
f 156/10/2 157/10/2 159/10/2
f 158/11/2 156/11/2 159/11/2
f 157/10/2 152/10/2 160/10/2
f 159/10/2 157/10/2 160/10/2
f 161/7/2 162/7/2 164/7/2
f 164/7/2 162/7/2 165/7/2
f 163/7/2 164/7/2 167/7/2
f 164/8/2 165/8/2 168/8/2
f 167/7/2 164/7/2 168/7/2
f 165/7/2 166/7/2 169/7/2
f 168/8/2 165/8/2 169/8/2
f 169/7/2 166/7/2 170/7/2
f 168/6/2 169/6/2 171/6/2
f 171/6/2 169/6/2 172/6/2
f 175/3/3 174/3/3 173/3/3
f 176/3/3 174/3/3 175/3/3
f 186/9/3 178/9/3 177/9/3
f 187/9/3 178/9/3 186/9/3
f 189/10/3 180/10/3 179/10/3
f 190/10/3 180/10/3 189/10/3
f 191/11/3 181/11/3 180/11/3
f 191/10/3 180/10/3 190/10/3
f 192/11/3 181/11/3 191/11/3
f 193/11/3 183/11/3 182/11/3
f 194/11/3 185/11/3 184/11/3
f 197/10/3 190/10/3 189/10/3
f 197/10/3 189/10/3 188/10/3
f 198/10/3 190/10/3 197/10/3
f 199/9/3 191/9/3 190/9/3
f 199/10/3 190/10/3 198/10/3
f 199/9/3 192/9/3 191/9/3
f 200/9/3 192/9/3 199/9/3
f 201/11/3 181/11/3 192/11/3
f 201/9/3 192/9/3 200/9/3
f 202/11/3 193/11/3 182/11/3
f 203/11/3 185/11/3 194/11/3
f 204/9/3 196/9/3 195/9/3
f 205/9/3 196/9/3 204/9/3
f 206/10/3 200/10/3 199/10/3
f 206/10/3 199/10/3 198/10/3
f 207/11/3 201/11/3 200/11/3
f 207/10/3 200/10/3 206/10/3
f 208/11/3 181/11/3 201/11/3
f 208/11/3 201/11/3 207/11/3
f 209/11/3 202/11/3 182/11/3
f 210/11/3 202/11/3 209/11/3
f 211/11/3 185/11/3 203/11/3
f 212/11/3 185/11/3 211/11/3
f 215/7/3 214/7/3 213/7/3
f 216/7/3 214/7/3 215/7/3
f 219/9/3 218/9/3 217/9/3
f 220/9/3 218/9/3 219/9/3
f 224/5/3 222/5/3 221/5/3
f 225/5/3 222/5/3 224/5/3
f 226/11/3 220/11/3 219/11/3
f 227/11/3 220/11/3 226/11/3
f 230/10/3 224/10/3 223/10/3
f 231/10/3 224/10/3 230/10/3
f 232/10/3 224/10/3 231/10/3
f 235/11/3 229/11/3 228/11/3
f 236/11/3 229/11/3 235/11/3
f 240/10/3 234/10/3 233/10/3
f 241/10/3 234/10/3 240/10/3
f 244/10/3 239/10/3 238/10/3
f 244/10/3 238/10/3 237/10/3
f 245/10/3 239/10/3 244/10/3
f 248/11/3 243/11/3 242/11/3
f 249/11/3 243/11/3 248/11/3
f 250/11/3 247/11/3 246/11/3
f 251/11/3 247/11/3 250/11/3
f 252/9/3 251/9/3 250/9/3
f 253/9/3 251/9/3 252/9/3
f 256/7/3 253/7/3 252/7/3
f 257/7/3 253/7/3 256/7/3
f 258/6/3 255/6/3 254/6/3
f 259/6/3 255/6/3 258/6/3
f 262/1/3 261/1/3 260/1/3
f 263/1/3 261/1/3 262/1/3
f 264/9/4 265/9/4 266/9/4
f 266/9/4 265/9/4 267/9/4
f 266/11/4 267/11/4 271/11/4
f 271/11/4 267/11/4 272/11/4
f 268/9/4 269/9/4 273/9/4
f 269/10/4 270/10/4 274/10/4
f 273/9/4 269/9/4 274/9/4
f 274/10/4 270/10/4 275/10/4
f 275/10/4 270/10/4 276/10/4
f 277/10/4 278/10/4 283/10/4
f 283/10/4 278/10/4 284/10/4
f 279/9/4 280/9/4 285/9/4
f 281/10/4 282/10/4 286/10/4
f 285/9/4 280/9/4 286/9/4
f 280/10/4 281/10/4 286/10/4
f 286/10/4 282/10/4 287/10/4
f 288/11/4 289/11/4 290/11/4
f 290/11/4 289/11/4 291/11/4
f 290/9/4 291/9/4 292/9/4
f 292/9/4 291/9/4 293/9/4
f 292/7/4 293/7/4 296/7/4
f 296/7/4 293/7/4 297/7/4
f 294/6/4 295/6/4 298/6/4
f 298/6/4 295/6/4 299/6/4
f 300/10/4 301/10/4 307/10/4
f 301/10/4 302/10/4 307/10/4
f 307/10/4 302/10/4 308/10/4
f 302/11/4 303/11/4 309/11/4
f 308/10/4 302/10/4 309/10/4
f 309/11/4 303/11/4 310/11/4
f 304/10/4 305/10/4 311/10/4
f 311/10/4 305/10/4 312/10/4
f 307/10/4 308/10/4 313/10/4
f 306/10/4 307/10/4 313/10/4
f 313/10/4 308/10/4 314/10/4
f 314/10/4 308/10/4 315/10/4
f 310/11/4 303/11/4 317/11/4
f 304/10/4 311/10/4 318/10/4
f 315/10/4 316/10/4 320/10/4
f 314/10/4 315/10/4 320/10/4
f 316/11/4 317/11/4 321/11/4
f 320/10/4 316/10/4 321/10/4
f 317/11/4 303/11/4 322/11/4
f 321/11/4 317/11/4 322/11/4
f 318/10/4 319/10/4 323/10/4
f 304/10/4 318/10/4 323/10/4
f 323/10/4 319/10/4 324/10/4
f 325/7/4 326/7/4 327/7/4
f 327/7/4 326/7/4 328/7/4
f 329/4/4 330/4/4 331/4/4
f 331/4/4 330/4/4 332/4/4
f 333/9/4 334/9/4 337/9/4
f 337/9/4 334/9/4 338/9/4
f 335/1/4 336/1/4 339/1/4
f 339/1/4 336/1/4 340/1/4
f 341/2/4 342/2/4 343/2/4
f 343/2/4 342/2/4 344/2/4
f 349/9/5 346/9/5 345/9/5
f 350/9/5 346/9/5 349/9/5
f 351/9/5 348/9/5 347/9/5
f 352/9/5 348/9/5 351/9/5
f 355/10/5 354/10/5 353/10/5
f 356/10/5 354/10/5 355/10/5
f 357/10/5 356/10/5 355/10/5
f 358/10/5 356/10/5 357/10/5
f 359/10/5 358/10/5 357/10/5
f 360/10/5 358/10/5 359/10/5
f 366/10/5 362/10/5 361/10/5
f 367/10/5 362/10/5 366/10/5
f 368/10/5 364/10/5 363/10/5
f 369/10/5 364/10/5 368/10/5
f 370/5/5 366/5/5 365/5/5
f 371/5/5 366/5/5 370/5/5
f 375/4/5 371/4/5 370/4/5
f 375/10/5 372/10/5 371/10/5
f 376/10/5 372/10/5 375/10/5
f 377/10/5 374/10/5 373/10/5
f 378/10/5 374/10/5 377/10/5
f 379/4/5 375/4/5 370/4/5
f 380/4/5 375/4/5 379/4/5
f 383/9/5 382/9/5 381/9/5
f 384/9/5 382/9/5 383/9/5
f 392/9/5 386/9/5 385/9/5
f 393/11/5 387/11/5 386/11/5
f 393/9/5 386/9/5 392/9/5
f 394/11/5 387/11/5 393/11/5
f 395/11/5 389/11/5 388/11/5
f 396/9/5 390/9/5 389/9/5
f 396/11/5 389/11/5 395/11/5
f 397/7/5 391/7/5 390/7/5
f 397/9/5 390/9/5 396/9/5
f 398/7/5 391/7/5 397/7/5
f 401/7/5 400/7/5 399/7/5
f 402/7/5 400/7/5 401/7/5
f 405/7/5 404/7/5 403/7/5
f 406/7/5 404/7/5 405/7/5
f 409/11/5 408/11/5 407/11/5
f 410/11/5 408/11/5 409/11/5
f 411/11/5 409/11/5 407/11/5
f 412/11/5 409/11/5 411/11/5
f 413/11/5 408/11/5 410/11/5
f 414/11/5 408/11/5 413/11/5
f 415/10/5 412/10/5 411/10/5
f 415/10/5 413/10/5 412/10/5
f 415/10/5 414/10/5 413/10/5
f 416/10/5 414/10/5 415/10/5
f 419/3/5 418/3/5 417/3/5
f 420/3/5 418/3/5 419/3/5
f 423/1/5 422/1/5 421/1/5
f 424/1/5 422/1/5 423/1/5
f 425/2/5 424/2/5 423/2/5
f 426/2/5 424/2/5 425/2/5
f 431/11/5 428/11/5 427/11/5
f 432/11/5 428/11/5 431/11/5
f 433/11/5 430/11/5 429/11/5
f 434/11/5 430/11/5 433/11/5
f 435/9/6 436/9/6 439/9/6
f 439/9/6 436/9/6 440/9/6
f 437/9/6 438/9/6 441/9/6
f 441/9/6 438/9/6 442/9/6
f 443/5/6 444/5/6 445/5/6
f 445/5/6 444/5/6 446/5/6
f 445/4/6 446/4/6 447/4/6
f 445/4/6 447/4/6 448/4/6
f 448/4/6 447/4/6 449/4/6
f 450/9/6 451/9/6 456/9/6
f 451/11/6 452/11/6 457/11/6
f 456/9/6 451/9/6 457/9/6
f 457/11/6 452/11/6 458/11/6
f 453/11/6 454/11/6 459/11/6
f 454/9/6 455/9/6 460/9/6
f 459/11/6 454/11/6 460/11/6
f 460/9/6 455/9/6 461/9/6
f 462/9/6 463/9/6 464/9/6
f 464/9/6 463/9/6 465/9/6
f 466/11/6 467/11/6 470/11/6
f 470/11/6 467/11/6 471/11/6
f 468/7/6 469/7/6 472/7/6
f 472/7/6 469/7/6 473/7/6
f 466/11/6 470/11/6 474/11/6
f 471/11/6 467/11/6 475/11/6
f 466/11/6 474/11/6 478/11/6
f 474/11/6 475/11/6 478/11/6
f 475/11/6 467/11/6 479/11/6
f 478/11/6 475/11/6 479/11/6
f 476/7/6 477/7/6 480/7/6
f 480/7/6 477/7/6 481/7/6
f 482/11/6 483/11/6 486/11/6
f 486/11/6 483/11/6 487/11/6
f 484/11/6 485/11/6 488/11/6
f 488/11/6 485/11/6 489/11/6
f 490/3/6 491/3/6 492/3/6
f 492/3/6 491/3/6 493/3/6
f 494/2/6 495/2/6 496/2/6
f 496/2/6 495/2/6 497/2/6
f 498/11/6 499/11/6 500/11/6
f 500/11/6 499/11/6 501/11/6
f 500/10/6 501/10/6 502/10/6
f 502/10/6 501/10/6 503/10/6
f 500/10/6 502/10/6 504/10/6
f 504/10/6 502/10/6 505/10/6
f 503/10/6 501/10/6 506/10/6
f 506/10/6 501/10/6 507/10/6
f 508/6/6 509/6/6 512/6/6
f 512/6/6 509/6/6 513/6/6
f 510/1/6 511/1/6 514/1/6
f 514/1/6 511/1/6 515/1/6
