# MagicaVoxel @ Ephtracy

# group
o 

# material
mtllib Thief.mtl
usemtl palette

# normals
vn -1 0 0
vn 1 0 0
vn 0 0 1
vn 0 0 -1
vn 0 -1 0
vn 0 1 0

# texcoords
vt 0.158203 0.5
vt 0.271484 0.5
vt 0.279297 0.5
vt 0.287109 0.5
vt 0.302734 0.5
vt 0.767578 0.5
vt 0.794922 0.5
vt 0.798828 0.5
vt 0.912109 0.5
vt 0.986328 0.5

# verts
v 0 0.8 -0.6
v 0 0.8 -0.7
v 0 0.8 -0.8
v 0 0.8 -0.9
v 0 0.8 -1
v 0 0.9 -0.6
v 0 0.9 -0.7
v 0 0.9 -0.8
v 0 0.9 -0.9
v 0 0.9 -1
v 0.1 0.4 -0.8
v 0.1 0.4 -1
v 0.1 0.5 -0.8
v 0.1 0.5 -0.9
v 0.1 0.5 -1
v 0.1 0.6 -0.9
v 0.1 0.6 -1
v 0.1 0.7 -0.9
v 0.1 0.7 -1
v 0.1 0.8 -0.5
v 0.1 0.8 -0.6
v 0.1 0.8 -0.9
v 0.1 0.8 -1
v 0.1 0.9 -0.5
v 0.1 0.9 -0.6
v 0.1 0.9 -0.8
v 0.1 0.9 -0.9
v 0.1 0.9 -1
v 0.1 0.9 -1.1
v 0.1 1 -0.9
v 0.1 1 -1
v 0.1 1.1 -0.8
v 0.1 1.1 -0.9
v 0.1 1.1 -1.1
v 0.1 1.2 -0.8
v 0.1 1.2 -1.1
v 0.2 0.8 -0.4
v 0.2 0.8 -0.5
v 0.2 0.8 -0.6
v 0.2 0.8 -0.7
v 0.2 0.8 -0.8
v 0.2 0.8 -0.9
v 0.2 0.9 0
v 0.2 0.9 -0.1
v 0.2 0.9 -0.4
v 0.2 0.9 -0.5
v 0.2 0.9 -0.6
v 0.2 0.9 -0.8
v 0.2 0.9 -0.9
v 0.2 1 0
v 0.2 1 -0.1
v 0.2 1 -0.4
v 0.2 1 -0.6
v 0.2 1 -0.7
v 0.2 1.1 -0.4
v 0.2 1.1 -0.6
v 0.2 1.2 -0.9
v 0.2 1.2 -1
v 0.2 1.3 -0.9
v 0.2 1.3 -1
v 0.3 0.4 -0.8
v 0.3 0.4 -1
v 0.3 0.5 -0.8
v 0.3 0.5 -0.9
v 0.3 0.5 -1
v 0.3 0.6 -0.9
v 0.3 0.6 -1
v 0.4 0.8 -0.7
v 0.4 0.8 -0.8
v 0.4 0.8 -0.9
v 0.4 0.9 -0.7
v 0.4 0.9 -0.8
v 0.4 0.9 -0.9
v 0.1 0.8 -0.6
v 0.1 0.8 -0.7
v 0.1 0.8 -0.8
v 0.1 0.8 -0.9
v 0.1 0.9 -0.6
v 0.1 0.9 -0.7
v 0.1 0.9 -0.8
v 0.1 0.9 -0.9
v 0.2 0.4 -0.8
v 0.2 0.4 -1
v 0.2 0.5 -0.8
v 0.2 0.5 -0.9
v 0.2 0.5 -1
v 0.2 0.6 -0.9
v 0.2 0.6 -1
v 0.2 0.8 -0.5
v 0.2 0.8 -0.6
v 0.2 0.9 -0.5
v 0.2 0.9 -0.6
v 0.3 0.8 -0.4
v 0.3 0.8 -0.5
v 0.3 0.8 -0.8
v 0.3 0.8 -0.9
v 0.3 0.9 0
v 0.3 0.9 -0.1
v 0.3 0.9 -0.4
v 0.3 0.9 -0.5
v 0.3 0.9 -0.6
v 0.3 0.9 -0.7
v 0.3 0.9 -0.8
v 0.3 0.9 -0.9
v 0.3 1 0
v 0.3 1 -0.1
v 0.3 1 -0.4
v 0.3 1 -0.6
v 0.3 1 -0.7
v 0.3 1.1 -0.4
v 0.3 1.1 -0.6
v 0.3 1.2 -0.9
v 0.3 1.2 -1
v 0.3 1.3 -0.9
v 0.3 1.3 -1
v 0.4 0.4 -0.8
v 0.4 0.4 -1
v 0.4 0.5 -0.8
v 0.4 0.5 -0.9
v 0.4 0.5 -1
v 0.4 0.6 -0.9
v 0.4 0.6 -1
v 0.4 0.7 -0.9
v 0.4 0.7 -1
v 0.4 0.8 -0.9
v 0.4 0.8 -1
v 0.4 0.9 -0.8
v 0.4 0.9 -0.9
v 0.4 0.9 -1
v 0.4 0.9 -1.1
v 0.4 1 -0.9
v 0.4 1 -1
v 0.4 1.1 -0.8
v 0.4 1.1 -0.9
v 0.4 1.1 -1.1
v 0.4 1.2 -0.8
v 0.4 1.2 -1.1
v 0.5 0.8 -0.6
v 0.5 0.8 -0.7
v 0.5 0.8 -0.8
v 0.5 0.8 -0.9
v 0.5 0.8 -1
v 0.5 0.9 -0.6
v 0.5 0.9 -0.7
v 0.5 0.9 -0.8
v 0.5 0.9 -0.9
v 0.5 0.9 -1
v 0.2 0.9 0
v 0.2 1 0
v 0.3 0.9 0
v 0.3 1 0
v 0.2 0.8 -0.4
v 0.2 0.9 -0.4
v 0.2 1 -0.4
v 0.2 1.1 -0.4
v 0.3 0.8 -0.4
v 0.3 0.9 -0.4
v 0.3 1 -0.4
v 0.3 1.1 -0.4
v 0.1 0.8 -0.5
v 0.1 0.9 -0.5
v 0.2 0.8 -0.5
v 0.2 0.9 -0.5
v 0 0.8 -0.6
v 0 0.9 -0.6
v 0.1 0.8 -0.6
v 0.1 0.9 -0.6
v 0.2 0.8 -0.6
v 0.2 0.9 -0.6
v 0.3 0.8 -0.6
v 0.3 0.9 -0.6
v 0.4 0.8 -0.6
v 0.4 0.9 -0.6
v 0.5 0.8 -0.6
v 0.5 0.9 -0.6
v 0.1 0.4 -0.8
v 0.1 0.5 -0.8
v 0.1 0.9 -0.8
v 0.1 1.1 -0.8
v 0.1 1.2 -0.8
v 0.2 0.4 -0.8
v 0.2 0.5 -0.8
v 0.2 0.8 -0.8
v 0.2 0.9 -0.8
v 0.3 0.4 -0.8
v 0.3 0.5 -0.8
v 0.3 0.8 -0.8
v 0.3 0.9 -0.8
v 0.4 0.4 -0.8
v 0.4 0.5 -0.8
v 0.4 0.9 -0.8
v 0.4 1.1 -0.8
v 0.4 1.2 -0.8
v 0.1 0.5 -0.9
v 0.1 0.6 -0.9
v 0.1 0.7 -0.9
v 0.1 0.8 -0.9
v 0.1 0.9 -0.9
v 0.2 0.5 -0.9
v 0.2 0.6 -0.9
v 0.2 0.8 -0.9
v 0.2 0.9 -0.9
v 0.2 1.2 -0.9
v 0.2 1.3 -0.9
v 0.3 0.5 -0.9
v 0.3 0.6 -0.9
v 0.3 0.8 -0.9
v 0.3 0.9 -0.9
v 0.3 1.2 -0.9
v 0.3 1.3 -0.9
v 0.4 0.5 -0.9
v 0.4 0.6 -0.9
v 0.4 0.7 -0.9
v 0.4 0.8 -0.9
v 0.4 0.9 -0.9
v 0.2 0.8 -0.5
v 0.2 0.9 -0.5
v 0.3 0.8 -0.5
v 0.3 0.9 -0.5
v 0.1 0.8 -0.6
v 0.1 0.9 -0.6
v 0.2 0.8 -0.6
v 0.2 0.9 -0.6
v 0.2 1 -0.6
v 0.2 1.1 -0.6
v 0.3 1 -0.6
v 0.3 1.1 -0.6
v 0.2 0.8 -0.7
v 0.2 1 -0.7
v 0.3 0.8 -0.7
v 0.3 0.9 -0.7
v 0.3 1 -0.7
v 0.4 0.8 -0.7
v 0.4 0.9 -0.7
v 0 0.8 -1
v 0 0.9 -1
v 0.1 0.4 -1
v 0.1 0.5 -1
v 0.1 0.6 -1
v 0.1 0.7 -1
v 0.1 0.8 -1
v 0.1 0.9 -1
v 0.2 0.4 -1
v 0.2 0.5 -1
v 0.2 0.6 -1
v 0.2 1.2 -1
v 0.2 1.3 -1
v 0.3 0.4 -1
v 0.3 0.5 -1
v 0.3 0.6 -1
v 0.3 1.2 -1
v 0.3 1.3 -1
v 0.4 0.4 -1
v 0.4 0.5 -1
v 0.4 0.6 -1
v 0.4 0.7 -1
v 0.4 0.8 -1
v 0.4 0.9 -1
v 0.5 0.8 -1
v 0.5 0.9 -1
v 0.1 0.9 -1.1
v 0.1 1.1 -1.1
v 0.1 1.2 -1.1
v 0.4 0.9 -1.1
v 0.4 1.1 -1.1
v 0.4 1.2 -1.1
v 0.1 0.4 -0.8
v 0.2 0.4 -0.8
v 0.3 0.4 -0.8
v 0.4 0.4 -0.8
v 0.1 0.4 -1
v 0.2 0.4 -1
v 0.3 0.4 -1
v 0.4 0.4 -1
v 0.2 0.6 -0.9
v 0.3 0.6 -0.9
v 0.2 0.6 -1
v 0.3 0.6 -1
v 0.2 0.8 -0.4
v 0.3 0.8 -0.4
v 0.1 0.8 -0.5
v 0.2 0.8 -0.5
v 0.3 0.8 -0.5
v 0 0.8 -0.6
v 0.1 0.8 -0.6
v 0.2 0.8 -0.6
v 0.3 0.8 -0.6
v 0.4 0.8 -0.6
v 0.5 0.8 -0.6
v 0 0.8 -0.7
v 0.1 0.8 -0.7
v 0.2 0.8 -0.7
v 0.3 0.8 -0.7
v 0.4 0.8 -0.7
v 0.5 0.8 -0.7
v 0 0.8 -0.8
v 0.1 0.8 -0.8
v 0.2 0.8 -0.8
v 0.3 0.8 -0.8
v 0.4 0.8 -0.8
v 0.5 0.8 -0.8
v 0 0.8 -0.9
v 0.1 0.8 -0.9
v 0.2 0.8 -0.9
v 0.3 0.8 -0.9
v 0.4 0.8 -0.9
v 0.5 0.8 -0.9
v 0 0.8 -1
v 0.1 0.8 -1
v 0.4 0.8 -1
v 0.5 0.8 -1
v 0.2 0.9 0
v 0.3 0.9 0
v 0.2 0.9 -0.1
v 0.3 0.9 -0.1
v 0.2 0.9 -0.4
v 0.3 0.9 -0.4
v 0.2 0.9 -0.5
v 0.3 0.9 -0.5
v 0.2 0.9 -0.6
v 0.3 0.9 -0.6
v 0.1 0.9 -0.8
v 0.2 0.9 -0.8
v 0.3 0.9 -0.8
v 0.4 0.9 -0.8
v 0.1 0.9 -0.9
v 0.2 0.9 -0.9
v 0.3 0.9 -0.9
v 0.4 0.9 -0.9
v 0.1 0.9 -1
v 0.4 0.9 -1
v 0.1 0.9 -1.1
v 0.4 0.9 -1.1
v 0.1 0.5 -0.8
v 0.2 0.5 -0.8
v 0.3 0.5 -0.8
v 0.4 0.5 -0.8
v 0.1 0.5 -0.9
v 0.2 0.5 -0.9
v 0.3 0.5 -0.9
v 0.4 0.5 -0.9
v 0.1 0.9 -0.5
v 0.2 0.9 -0.5
v 0 0.9 -0.6
v 0.1 0.9 -0.6
v 0.2 0.9 -0.6
v 0.3 0.9 -0.6
v 0.4 0.9 -0.6
v 0.5 0.9 -0.6
v 0 0.9 -0.7
v 0.1 0.9 -0.7
v 0.3 0.9 -0.7
v 0.4 0.9 -0.7
v 0.5 0.9 -0.7
v 0 0.9 -0.8
v 0.1 0.9 -0.8
v 0.4 0.9 -0.8
v 0.5 0.9 -0.8
v 0 0.9 -0.9
v 0.1 0.9 -0.9
v 0.4 0.9 -0.9
v 0.5 0.9 -0.9
v 0 0.9 -1
v 0.1 0.9 -1
v 0.4 0.9 -1
v 0.5 0.9 -1
v 0.2 1 0
v 0.3 1 0
v 0.2 1 -0.1
v 0.3 1 -0.1
v 0.2 1 -0.4
v 0.3 1 -0.4
v 0.2 1 -0.6
v 0.3 1 -0.6
v 0.2 1 -0.7
v 0.3 1 -0.7
v 0.2 1.1 -0.4
v 0.3 1.1 -0.4
v 0.2 1.1 -0.6
v 0.3 1.1 -0.6
v 0.1 1.2 -0.8
v 0.4 1.2 -0.8
v 0.2 1.2 -0.9
v 0.3 1.2 -0.9
v 0.2 1.2 -1
v 0.3 1.2 -1
v 0.1 1.2 -1.1
v 0.4 1.2 -1.1
v 0.2 1.3 -0.9
v 0.3 1.3 -0.9
v 0.2 1.3 -1
v 0.3 1.3 -1

# faces
f 6/9/1 2/9/1 1/9/1
f 7/6/1 3/6/1 2/6/1
f 7/9/1 2/9/1 6/9/1
f 8/9/1 4/9/1 3/9/1
f 8/6/1 3/6/1 7/6/1
f 9/6/1 5/6/1 4/6/1
f 9/9/1 4/9/1 8/9/1
f 10/6/1 5/6/1 9/6/1
f 13/1/1 12/1/1 11/1/1
f 14/1/1 12/1/1 13/1/1
f 15/1/1 12/1/1 14/1/1
f 16/9/1 15/9/1 14/9/1
f 17/9/1 15/9/1 16/9/1
f 18/6/1 17/6/1 16/6/1
f 19/6/1 17/6/1 18/6/1
f 22/9/1 19/9/1 18/9/1
f 23/9/1 19/9/1 22/9/1
f 24/6/1 21/6/1 20/6/1
f 25/6/1 21/6/1 24/6/1
f 30/4/1 28/4/1 27/4/1
f 30/4/1 27/4/1 26/4/1
f 31/2/1 29/2/1 28/2/1
f 31/4/1 28/4/1 30/4/1
f 32/4/1 30/4/1 26/4/1
f 33/2/1 31/2/1 30/2/1
f 33/4/1 30/4/1 32/4/1
f 34/2/1 29/2/1 31/2/1
f 34/2/1 31/2/1 33/2/1
f 35/6/1 33/6/1 32/6/1
f 35/6/1 34/6/1 33/6/1
f 36/6/1 34/6/1 35/6/1
f 45/7/1 38/7/1 37/7/1
f 46/7/1 38/7/1 45/7/1
f 47/7/1 40/7/1 39/7/1
f 48/5/1 42/5/1 41/5/1
f 49/5/1 42/5/1 48/5/1
f 50/8/1 44/8/1 43/8/1
f 51/7/1 46/7/1 45/7/1
f 51/8/1 44/8/1 50/8/1
f 51/7/1 47/7/1 46/7/1
f 51/7/1 45/7/1 44/7/1
f 52/7/1 47/7/1 51/7/1
f 53/7/1 40/7/1 47/7/1
f 53/7/1 47/7/1 52/7/1
f 54/7/1 40/7/1 53/7/1
f 55/8/1 53/8/1 52/8/1
f 56/8/1 53/8/1 55/8/1
f 59/10/1 58/10/1 57/10/1
f 60/10/1 58/10/1 59/10/1
f 63/1/1 62/1/1 61/1/1
f 64/1/1 62/1/1 63/1/1
f 65/1/1 62/1/1 64/1/1
f 66/9/1 65/9/1 64/9/1
f 67/9/1 65/9/1 66/9/1
f 71/1/1 69/1/1 68/1/1
f 72/9/1 70/9/1 69/9/1
f 72/1/1 69/1/1 71/1/1
f 73/9/1 70/9/1 72/9/1
f 74/9/2 75/9/2 78/9/2
f 75/6/2 76/6/2 79/6/2
f 78/9/2 75/9/2 79/9/2
f 76/9/2 77/9/2 80/9/2
f 79/6/2 76/6/2 80/6/2
f 80/9/2 77/9/2 81/9/2
f 82/1/2 83/1/2 84/1/2
f 84/1/2 83/1/2 85/1/2
f 85/1/2 83/1/2 86/1/2
f 85/9/2 86/9/2 87/9/2
f 87/9/2 86/9/2 88/9/2
f 89/6/2 90/6/2 91/6/2
f 91/6/2 90/6/2 92/6/2
f 93/7/2 94/7/2 99/7/2
f 99/7/2 94/7/2 100/7/2
f 95/5/2 96/5/2 103/5/2
f 103/5/2 96/5/2 104/5/2
f 97/8/2 98/8/2 105/8/2
f 101/7/2 102/7/2 106/7/2
f 105/8/2 98/8/2 106/8/2
f 98/7/2 99/7/2 106/7/2
f 99/7/2 100/7/2 106/7/2
f 100/7/2 101/7/2 106/7/2
f 106/7/2 102/7/2 107/7/2
f 107/7/2 102/7/2 108/7/2
f 108/7/2 102/7/2 109/7/2
f 107/8/2 108/8/2 110/8/2
f 110/8/2 108/8/2 111/8/2
f 112/10/2 113/10/2 114/10/2
f 114/10/2 113/10/2 115/10/2
f 116/1/2 117/1/2 118/1/2
f 118/1/2 117/1/2 119/1/2
f 119/1/2 117/1/2 120/1/2
f 119/9/2 120/9/2 121/9/2
f 121/9/2 120/9/2 122/9/2
f 121/6/2 122/6/2 123/6/2
f 123/6/2 122/6/2 124/6/2
f 123/9/2 124/9/2 125/9/2
f 125/9/2 124/9/2 126/9/2
f 128/4/2 129/4/2 131/4/2
f 127/4/2 128/4/2 131/4/2
f 129/2/2 130/2/2 132/2/2
f 131/4/2 129/4/2 132/4/2
f 127/4/2 131/4/2 133/4/2
f 131/2/2 132/2/2 134/2/2
f 133/4/2 131/4/2 134/4/2
f 132/2/2 130/2/2 135/2/2
f 134/2/2 132/2/2 135/2/2
f 133/6/2 134/6/2 136/6/2
f 134/6/2 135/6/2 136/6/2
f 136/6/2 135/6/2 137/6/2
f 138/9/2 139/9/2 143/9/2
f 139/1/2 140/1/2 144/1/2
f 143/9/2 139/9/2 144/9/2
f 140/9/2 141/9/2 145/9/2
f 144/1/2 140/1/2 145/1/2
f 141/1/2 142/1/2 146/1/2
f 145/9/2 141/9/2 146/9/2
f 146/1/2 142/1/2 147/1/2
f 150/8/3 149/8/3 148/8/3
f 151/8/3 149/8/3 150/8/3
f 156/7/3 153/7/3 152/7/3
f 157/7/3 153/7/3 156/7/3
f 158/8/3 155/8/3 154/8/3
f 159/8/3 155/8/3 158/8/3
f 162/6/3 161/6/3 160/6/3
f 163/6/3 161/6/3 162/6/3
f 166/9/3 165/9/3 164/9/3
f 167/9/3 165/9/3 166/9/3
f 170/7/3 169/7/3 168/7/3
f 171/7/3 169/7/3 170/7/3
f 172/1/3 171/1/3 170/1/3
f 173/1/3 171/1/3 172/1/3
f 174/9/3 173/9/3 172/9/3
f 175/9/3 173/9/3 174/9/3
f 181/1/3 177/1/3 176/1/3
f 182/1/3 177/1/3 181/1/3
f 184/4/3 179/4/3 178/4/3
f 187/5/3 184/5/3 183/5/3
f 188/4/3 179/4/3 184/4/3
f 188/5/3 184/5/3 187/5/3
f 189/1/3 186/1/3 185/1/3
f 190/1/3 186/1/3 189/1/3
f 191/4/3 179/4/3 188/4/3
f 192/6/3 180/6/3 179/6/3
f 192/4/3 179/4/3 191/4/3
f 193/6/3 180/6/3 192/6/3
f 199/9/3 195/9/3 194/9/3
f 200/6/3 196/6/3 195/6/3
f 200/9/3 195/9/3 199/9/3
f 201/6/3 198/6/3 197/6/3
f 201/9/3 197/9/3 196/9/3
f 202/6/3 198/6/3 201/6/3
f 206/6/3 196/6/3 200/6/3
f 207/9/3 201/9/3 196/9/3
f 209/10/3 204/10/3 203/10/3
f 210/10/3 204/10/3 209/10/3
f 211/9/3 206/9/3 205/9/3
f 212/6/3 196/6/3 206/6/3
f 212/9/3 206/9/3 211/9/3
f 213/9/3 207/9/3 196/9/3
f 213/6/3 196/6/3 212/6/3
f 214/6/3 208/6/3 207/6/3
f 214/9/3 207/9/3 213/9/3
f 215/6/3 208/6/3 214/6/3
f 216/7/4 217/7/4 218/7/4
f 218/7/4 217/7/4 219/7/4
f 220/6/4 221/6/4 222/6/4
f 222/6/4 221/6/4 223/6/4
f 224/8/4 225/8/4 226/8/4
f 226/8/4 225/8/4 227/8/4
f 228/7/4 229/7/4 230/7/4
f 230/7/4 229/7/4 231/7/4
f 231/7/4 229/7/4 232/7/4
f 230/1/4 231/1/4 233/1/4
f 233/1/4 231/1/4 234/1/4
f 235/6/4 236/6/4 241/6/4
f 241/6/4 236/6/4 242/6/4
f 237/1/4 238/1/4 243/1/4
f 238/9/4 239/9/4 244/9/4
f 243/1/4 238/1/4 244/1/4
f 239/6/4 240/6/4 245/6/4
f 244/9/4 239/9/4 245/9/4
f 245/6/4 240/6/4 250/6/4
f 246/10/4 247/10/4 251/10/4
f 251/10/4 247/10/4 252/10/4
f 248/1/4 249/1/4 253/1/4
f 249/9/4 250/9/4 254/9/4
f 253/1/4 249/1/4 254/1/4
f 250/6/4 240/6/4 255/6/4
f 254/9/4 250/9/4 255/9/4
f 240/9/4 241/9/4 256/9/4
f 255/6/4 240/6/4 256/6/4
f 241/6/4 242/6/4 257/6/4
f 256/9/4 241/9/4 257/9/4
f 257/6/4 242/6/4 258/6/4
f 257/1/4 258/1/4 259/1/4
f 259/1/4 258/1/4 260/1/4
f 261/2/4 262/2/4 264/2/4
f 262/6/4 263/6/4 265/6/4
f 264/2/4 262/2/4 265/2/4
f 265/6/4 263/6/4 266/6/4
f 271/1/5 268/1/5 267/1/5
f 272/1/5 268/1/5 271/1/5
f 273/1/5 270/1/5 269/1/5
f 274/1/5 270/1/5 273/1/5
f 277/6/5 276/6/5 275/6/5
f 278/6/5 276/6/5 277/6/5
f 282/7/5 280/7/5 279/7/5
f 283/7/5 280/7/5 282/7/5
f 285/6/5 282/6/5 281/6/5
f 286/6/5 282/6/5 285/6/5
f 290/9/5 285/9/5 284/9/5
f 291/9/5 285/9/5 290/9/5
f 292/7/5 287/7/5 286/7/5
f 293/1/5 288/1/5 287/1/5
f 293/7/5 287/7/5 292/7/5
f 294/9/5 289/9/5 288/9/5
f 294/1/5 288/1/5 293/1/5
f 295/9/5 289/9/5 294/9/5
f 296/6/5 291/6/5 290/6/5
f 297/6/5 291/6/5 296/6/5
f 300/1/5 295/1/5 294/1/5
f 301/1/5 295/1/5 300/1/5
f 302/9/5 297/9/5 296/9/5
f 303/9/5 297/9/5 302/9/5
f 304/5/5 299/5/5 298/5/5
f 305/5/5 299/5/5 304/5/5
f 306/9/5 301/9/5 300/9/5
f 307/9/5 301/9/5 306/9/5
f 308/6/5 303/6/5 302/6/5
f 309/6/5 303/6/5 308/6/5
f 310/1/5 307/1/5 306/1/5
f 311/1/5 307/1/5 310/1/5
f 314/8/5 313/8/5 312/8/5
f 315/8/5 313/8/5 314/8/5
f 316/7/5 315/7/5 314/7/5
f 317/7/5 315/7/5 316/7/5
f 320/7/5 319/7/5 318/7/5
f 321/7/5 319/7/5 320/7/5
f 326/4/5 323/4/5 322/4/5
f 327/4/5 323/4/5 326/4/5
f 328/4/5 325/4/5 324/4/5
f 329/4/5 325/4/5 328/4/5
f 332/2/5 331/2/5 330/2/5
f 333/2/5 331/2/5 332/2/5
f 334/1/6 335/1/6 338/1/6
f 338/1/6 335/1/6 339/1/6
f 336/1/6 337/1/6 340/1/6
f 340/1/6 337/1/6 341/1/6
f 342/6/6 343/6/6 345/6/6
f 345/6/6 343/6/6 346/6/6
f 344/9/6 345/9/6 350/9/6
f 350/9/6 345/9/6 351/9/6
f 347/1/6 348/1/6 352/1/6
f 348/9/6 349/9/6 353/9/6
f 352/1/6 348/1/6 353/1/6
f 353/9/6 349/9/6 354/9/6
f 350/6/6 351/6/6 355/6/6
f 355/6/6 351/6/6 356/6/6
f 353/1/6 354/1/6 357/1/6
f 357/1/6 354/1/6 358/1/6
f 355/9/6 356/9/6 359/9/6
f 359/9/6 356/9/6 360/9/6
f 357/9/6 358/9/6 361/9/6
f 361/9/6 358/9/6 362/9/6
f 359/6/6 360/6/6 363/6/6
f 363/6/6 360/6/6 364/6/6
f 361/1/6 362/1/6 365/1/6
f 365/1/6 362/1/6 366/1/6
f 367/8/6 368/8/6 369/8/6
f 369/8/6 368/8/6 370/8/6
f 369/7/6 370/7/6 371/7/6
f 371/7/6 370/7/6 372/7/6
f 373/7/6 374/7/6 375/7/6
f 375/7/6 374/7/6 376/7/6
f 377/8/6 378/8/6 379/8/6
f 379/8/6 378/8/6 380/8/6
f 381/6/6 382/6/6 383/6/6
f 383/6/6 382/6/6 384/6/6
f 381/6/6 383/6/6 385/6/6
f 384/6/6 382/6/6 386/6/6
f 381/6/6 385/6/6 387/6/6
f 385/6/6 386/6/6 387/6/6
f 386/6/6 382/6/6 388/6/6
f 387/6/6 386/6/6 388/6/6
f 389/10/6 390/10/6 391/10/6
f 391/10/6 390/10/6 392/10/6
